<svg width="800" height="400" viewBox="0 0 800 400" xmlns="http://www.w3.org/2000/svg"><mask id="satori_om-id"><rect x="0" y="0" width="800" height="400" fill="#fff"/></mask><rect x="0" y="0" width="800" height="400" fill="#FFFFFF"/><mask id="satori_om-id-0"><rect x="245" y="183" width="311" height="34" fill="#fff"/></mask><mask id="satori_om-id-0-0"><rect x="245" y="183" width="311" height="34" fill="#fff"/></mask><path fill="#000000" d="M254.7 212.7L253.1 212.7L253.1 187.2L254.7 187.2L254.7 212.7ZM261.0 194.9L258.6 194.9Q258.4 193.3 257.2 192.5Q255.9 191.7 254.0 191.7L254.0 191.7Q252.7 191.7 251.7 192.1Q250.7 192.5 250.1 193.3Q249.5 194.1 249.5 195.1L249.5 195.1Q249.5 195.9 249.9 196.4Q250.3 197.0 250.9 197.4Q251.6 197.8 252.2 198.0Q252.9 198.3 253.5 198.4L253.5 198.4L255.5 199.0Q256.3 199.2 257.3 199.6Q258.3 199.9 259.2 200.6Q260.1 201.2 260.7 202.2Q261.3 203.2 261.3 204.6L261.3 204.6Q261.3 206.2 260.4 207.6Q259.5 208.9 257.9 209.7Q256.3 210.5 253.9 210.5L253.9 210.5Q251.7 210.5 250.1 209.8Q248.5 209.1 247.6 207.8Q246.7 206.5 246.6 204.9L246.6 204.9L249.1 204.9Q249.2 206.0 249.9 206.8Q250.6 207.5 251.6 207.9Q252.7 208.3 253.9 208.3L253.9 208.3Q255.3 208.3 256.4 207.8Q257.6 207.3 258.2 206.5Q258.9 205.7 258.9 204.6L258.9 204.6Q258.9 203.5 258.3 202.9Q257.7 202.3 256.8 201.9Q255.9 201.5 254.8 201.2L254.8 201.2L252.3 200.5Q249.9 199.8 248.5 198.5Q247.1 197.2 247.1 195.2L247.1 195.2Q247.1 193.5 248.1 192.2Q249.0 190.9 250.6 190.2Q252.2 189.5 254.1 189.5L254.1 189.5Q256.1 189.5 257.6 190.2Q259.1 190.9 260.0 192.1Q260.9 193.3 261.0 194.9L261.0 194.9Z M283.7 198.3L283.7 198.3L281.6 198.9Q281.4 198.3 281.0 197.8Q280.6 197.3 280.0 197.0Q279.3 196.7 278.3 196.7L278.3 196.7Q276.9 196.7 276.0 197.3Q275.0 198.0 275.0 198.9L275.0 198.9Q275.0 199.8 275.7 200.3Q276.3 200.8 277.7 201.2L277.7 201.2L279.9 201.7Q282.0 202.2 283.0 203.2Q284.0 204.3 284.0 205.9L284.0 205.9Q284.0 207.2 283.2 208.2Q282.5 209.3 281.1 209.8Q279.8 210.4 278.0 210.4L278.0 210.4Q275.7 210.4 274.1 209.4Q272.6 208.4 272.2 206.5L272.2 206.5L274.4 205.9Q274.8 207.1 275.6 207.8Q276.5 208.4 278.0 208.4L278.0 208.4Q279.6 208.4 280.6 207.7Q281.6 207.0 281.6 206.0L281.6 206.0Q281.6 205.2 281.0 204.7Q280.4 204.1 279.3 203.8L279.3 203.8L276.7 203.2Q274.6 202.7 273.7 201.7Q272.7 200.6 272.7 199.1L272.7 199.1Q272.7 197.8 273.4 196.8Q274.1 195.8 275.4 195.2Q276.7 194.7 278.3 194.7L278.3 194.7Q280.6 194.7 281.9 195.6Q283.2 196.6 283.7 198.3ZM298.3 198.3L298.3 198.3L296.2 198.9Q296.0 198.3 295.6 197.8Q295.3 197.3 294.6 197.0Q294.0 196.7 292.9 196.7L292.9 196.7Q291.5 196.7 290.6 197.3Q289.7 198.0 289.7 198.9L289.7 198.9Q289.7 199.8 290.3 200.3Q290.9 200.8 292.3 201.2L292.3 201.2L294.6 201.7Q296.6 202.2 297.6 203.2Q298.6 204.3 298.6 205.9L298.6 205.9Q298.6 207.2 297.9 208.2Q297.1 209.3 295.8 209.8Q294.4 210.4 292.6 210.4L292.6 210.4Q290.3 210.4 288.8 209.4Q287.2 208.4 286.8 206.5L286.8 206.5L289.1 205.9Q289.4 207.1 290.3 207.8Q291.2 208.4 292.6 208.4L292.6 208.4Q294.2 208.4 295.2 207.7Q296.2 207.0 296.2 206.0L296.2 206.0Q296.2 205.2 295.6 204.7Q295.1 204.1 293.9 203.8L293.9 203.8L291.4 203.2Q289.3 202.7 288.3 201.7Q287.3 200.6 287.3 199.1L287.3 199.1Q287.3 197.8 288.0 196.8Q288.8 195.8 290.0 195.2Q291.3 194.7 292.9 194.7L292.9 194.7Q295.2 194.7 296.5 195.6Q297.8 196.6 298.3 198.3ZM304.5 200.9L304.5 200.9L304.5 210.1L302.2 210.1L302.2 189.8L304.5 189.8L304.5 197.2L304.7 197.2Q305.2 196.1 306.3 195.4Q307.4 194.7 309.2 194.7L309.2 194.7Q310.8 194.7 311.9 195.3Q313.1 195.9 313.8 197.2Q314.4 198.5 314.4 200.4L314.4 200.4L314.4 210.1L312.1 210.1L312.1 200.6Q312.1 198.8 311.1 197.8Q310.2 196.8 308.5 196.8L308.5 196.8Q307.4 196.8 306.5 197.2Q305.5 197.7 305.0 198.7Q304.5 199.6 304.5 200.9Z M328.9 210.1L326.6 210.1L326.6 194.9L328.8 194.9L328.8 197.2L329 197.2Q329.4 196.0 330.5 195.3Q331.6 194.6 333.0 194.6L333.0 194.6Q333.2 194.6 333.6 194.6Q334.0 194.6 334.2 194.7L334.2 194.7L334.2 197.0Q334.1 197.0 333.7 196.9Q333.2 196.9 332.8 196.9L332.8 196.9Q331.7 196.9 330.8 197.3Q329.9 197.8 329.4 198.6Q328.9 199.4 328.9 200.5L328.9 200.5L328.9 210.1ZM342.7 210.4L342.7 210.4Q340.7 210.4 339.1 209.5Q337.5 208.5 336.7 206.7Q335.8 204.9 335.8 202.6L335.8 202.6Q335.8 200.2 336.7 198.4Q337.5 196.6 339.1 195.6Q340.7 194.7 342.7 194.7L342.7 194.7Q344.8 194.7 346.3 195.6Q347.9 196.6 348.8 198.4Q349.6 200.2 349.6 202.6L349.6 202.6Q349.6 204.9 348.8 206.7Q347.9 208.5 346.3 209.5Q344.8 210.4 342.7 210.4ZM342.7 208.3L342.7 208.3Q344.3 208.3 345.3 207.5Q346.3 206.7 346.8 205.4Q347.3 204.1 347.3 202.6L347.3 202.6Q347.3 201.0 346.8 199.7Q346.3 198.4 345.3 197.6Q344.3 196.8 342.7 196.8L342.7 196.8Q341.2 196.8 340.1 197.6Q339.1 198.4 338.6 199.7Q338.1 201.0 338.1 202.6L338.1 202.6Q338.1 204.1 338.6 205.4Q339.1 206.7 340.1 207.5Q341.2 208.3 342.7 208.3ZM359.4 210.4L359.4 210.4Q357.4 210.4 355.8 209.5Q354.2 208.5 353.4 206.7Q352.5 204.9 352.5 202.6L352.5 202.6Q352.5 200.2 353.4 198.4Q354.2 196.6 355.8 195.6Q357.4 194.7 359.4 194.7L359.4 194.7Q361.5 194.7 363.1 195.6Q364.6 196.6 365.5 198.4Q366.3 200.2 366.3 202.6L366.3 202.6Q366.3 204.9 365.5 206.7Q364.6 208.5 363.1 209.5Q361.5 210.4 359.4 210.4ZM359.4 208.3L359.4 208.3Q361.0 208.3 362.0 207.5Q363.0 206.7 363.5 205.4Q364 204.1 364 202.6L364 202.6Q364 201.0 363.5 199.7Q363.0 198.4 362.0 197.6Q361.0 196.8 359.4 196.8L359.4 196.8Q357.9 196.8 356.8 197.6Q355.8 198.4 355.3 199.7Q354.9 201.0 354.9 202.6L354.9 202.6Q354.9 204.1 355.3 205.4Q355.8 206.7 356.8 207.5Q357.9 208.3 359.4 208.3ZM368.7 194.9L376.6 194.9L376.6 196.8L368.7 196.8L368.7 194.9ZM371.0 206.4L371.0 191.2L373.3 191.2L373.3 205.8Q373.3 206.7 373.6 207.2Q373.9 207.7 374.4 207.9Q374.8 208.1 375.3 208.1L375.3 208.1Q375.7 208.1 376.0 208.0Q376.2 208.0 376.4 207.9L376.4 207.9L376.8 210.0Q376.6 210.1 376.2 210.2Q375.8 210.3 375.1 210.3L375.1 210.3Q374.1 210.3 373.2 209.9Q372.2 209.5 371.6 208.6Q371.0 207.7 371.0 206.4L371.0 206.4ZM391.8 215.5L391.8 215.5Q388.8 215.5 386.5 214.7Q384.1 213.8 382.5 212.2Q380.9 210.6 380.1 208.3Q379.3 205.9 379.3 202.9L379.3 202.9Q379.3 200.0 380.1 197.7Q381.0 195.4 382.6 193.8Q384.1 192.2 386.4 191.4Q388.7 190.5 391.6 190.5L391.6 190.5Q394.4 190.5 396.5 191.4Q398.6 192.3 400.0 193.9Q401.4 195.4 402.1 197.4Q402.8 199.3 402.8 201.3L402.8 201.3Q402.8 202.8 402.7 204.3Q402.5 205.7 402.1 207.0Q401.6 208.2 400.7 209.0Q399.8 209.7 398.2 209.7L398.2 209.7Q397.5 209.7 396.7 209.5Q395.8 209.3 395.2 208.8Q394.5 208.3 394.4 207.4L394.4 207.4L394.3 207.4Q394.1 208.0 393.6 208.5Q393.1 209.0 392.3 209.3Q391.5 209.6 390.4 209.6L390.4 209.6Q389.1 209.6 388.1 209.0Q387.1 208.5 386.4 207.6Q385.8 206.7 385.5 205.4Q385.1 204.2 385.1 202.8L385.1 202.8Q385.1 201.5 385.5 200.4Q385.9 199.2 386.6 198.4Q387.3 197.6 388.3 197.1Q389.3 196.6 390.4 196.4L390.4 196.4Q391.4 196.3 392.2 196.5Q393.0 196.7 393.5 197.1Q394.0 197.4 394.2 197.9L394.2 197.9L394.3 197.9L394.3 196.8L396.4 196.8L396.4 205.8Q396.4 206.6 396.9 207.2Q397.3 207.9 398.2 207.9L398.2 207.9Q399.3 207.9 399.8 207.2Q400.3 206.5 400.5 205.0Q400.8 203.6 400.8 201.3L400.8 201.3Q400.8 200.0 400.4 198.7Q400.0 197.4 399.3 196.2Q398.6 195.1 397.4 194.2Q396.3 193.4 394.8 192.9Q393.3 192.4 391.4 192.4L391.4 192.4Q389.1 192.4 387.3 193.1Q385.4 193.8 384.1 195.2Q382.8 196.6 382.2 198.5Q381.5 200.5 381.5 203.0L381.5 203.0Q381.5 205.5 382.2 207.5Q382.8 209.5 384.2 210.8Q385.5 212.2 387.4 212.9Q389.4 213.6 391.9 213.6L391.9 213.6Q393.0 213.6 394.1 213.4Q395.1 213.2 396.0 212.9Q396.8 212.7 397.1 212.6L397.1 212.6L397.7 214.4Q397.1 214.6 396.1 214.9Q395.1 215.2 394.0 215.3Q392.9 215.5 391.8 215.5ZM390.7 207.6L390.7 207.6Q392.0 207.6 392.8 207.0Q393.7 206.5 394.0 205.4Q394.4 204.3 394.4 202.7L394.4 202.7Q394.4 201.0 394.0 200.1Q393.6 199.1 392.8 198.8Q392.0 198.4 390.8 198.4L390.8 198.4Q389.6 198.4 388.8 199.0Q388.0 199.6 387.6 200.6Q387.2 201.5 387.2 202.7L387.2 202.7Q387.2 204.0 387.5 205.1Q387.9 206.2 388.6 206.9Q389.4 207.6 390.7 207.6ZM412.5 210.4L412.5 210.4Q410.4 210.4 408.8 209.4Q407.3 208.4 406.4 206.6Q405.6 204.9 405.6 202.6L405.6 202.6Q405.6 200.2 406.5 198.5Q407.3 196.7 408.9 195.7Q410.4 194.7 412.5 194.7L412.5 194.7Q414.1 194.7 415.4 195.3Q416.7 195.8 417.5 196.9Q418.3 198.0 418.5 199.4L418.5 199.4L416.2 199.4Q415.9 198.4 415.0 197.6Q414.1 196.8 412.5 196.8L412.5 196.8Q411.2 196.8 410.1 197.5Q409.1 198.2 408.5 199.5Q407.9 200.8 407.9 202.5L407.9 202.5Q407.9 204.3 408.5 205.6Q409.1 206.9 410.1 207.6Q411.1 208.3 412.5 208.3L412.5 208.3Q413.4 208.3 414.2 208.0Q414.9 207.7 415.4 207.1Q416.0 206.5 416.2 205.7L416.2 205.7L418.5 205.7Q418.3 207.0 417.5 208.1Q416.8 209.2 415.5 209.8Q414.2 210.4 412.5 210.4ZM423.5 215.9L423.5 215.9Q422.9 215.9 422.4 215.8Q421.9 215.7 421.7 215.6L421.7 215.6L422.3 213.5Q423.2 213.7 423.9 213.7Q424.5 213.6 425.0 213.1Q425.5 212.6 426.0 211.4L426.0 211.4L426.4 210.2L420.8 194.9L423.3 194.9L427.5 207.0L427.7 207.0L431.9 194.9L434.4 194.9L428.0 212.4Q427.5 213.5 426.9 214.3Q426.2 215.1 425.4 215.5Q424.5 215.9 423.5 215.9ZM440.1 210.1L437.9 210.1L437.9 189.8L440.2 189.8L440.2 197.3L440.4 197.3Q440.7 196.9 441.1 196.3Q441.6 195.6 442.5 195.1Q443.3 194.7 444.8 194.7L444.8 194.7Q446.7 194.7 448.2 195.6Q449.7 196.6 450.5 198.4Q451.3 200.1 451.3 202.5L451.3 202.5Q451.3 205.0 450.5 206.7Q449.7 208.5 448.2 209.5Q446.8 210.4 444.9 210.4L444.9 210.4Q443.4 210.4 442.5 210.0Q441.6 209.5 441.1 208.8Q440.7 208.2 440.4 207.8L440.4 207.8L440.1 207.8L440.1 210.1ZM440.2 202.5L440.2 202.5Q440.2 204.2 440.7 205.5Q441.2 206.9 442.2 207.6Q443.1 208.3 444.5 208.3L444.5 208.3Q446.0 208.3 447.0 207.6Q448.0 206.8 448.5 205.4Q449.0 204.1 449.0 202.5L449.0 202.5Q449.0 200.9 448.5 199.6Q448.0 198.3 447.0 197.5Q446.0 196.8 444.5 196.8L444.5 196.8Q443.1 196.8 442.1 197.5Q441.2 198.2 440.7 199.5Q440.2 200.8 440.2 202.5ZM461.3 210.4L461.3 210.4Q459.1 210.4 457.5 209.5Q455.9 208.5 455.1 206.7Q454.2 205.0 454.2 202.6L454.2 202.6Q454.2 200.3 455.1 198.5Q455.9 196.7 457.5 195.7Q459.0 194.7 461.1 194.7L461.1 194.7Q462.3 194.7 463.4 195.1Q464.6 195.4 465.6 196.3Q466.5 197.2 467.1 198.7Q467.6 200.2 467.6 202.3L467.6 202.3L467.6 203.3L455.9 203.3L455.9 201.3L465.3 201.3Q465.3 200.0 464.7 198.9Q464.2 197.9 463.3 197.3Q462.4 196.8 461.1 196.8L461.1 196.8Q459.7 196.8 458.7 197.5Q457.6 198.1 457.1 199.2Q456.6 200.4 456.6 201.6L456.6 201.6L456.6 203.0Q456.6 204.7 457.2 205.9Q457.8 207.1 458.8 207.7Q459.9 208.3 461.3 208.3L461.3 208.3Q462.2 208.3 463.0 208.1Q463.7 207.8 464.3 207.3Q464.8 206.7 465.1 205.9L465.1 205.9L467.4 206.6Q467.1 207.7 466.2 208.6Q465.4 209.5 464.1 210.0Q462.9 210.4 461.3 210.4ZM473.6 210.1L471.2 210.1L471.2 194.9L473.5 194.9L473.5 197.2L473.7 197.2Q474.1 196.0 475.2 195.3Q476.3 194.6 477.6 194.6L477.6 194.6Q477.9 194.6 478.3 194.6Q478.7 194.6 478.9 194.7L478.9 194.7L478.9 197.0Q478.7 197.0 478.3 196.9Q477.9 196.9 477.4 196.9L477.4 196.9Q476.3 196.9 475.4 197.3Q474.6 197.8 474.1 198.6Q473.6 199.4 473.6 200.5L473.6 200.5L473.6 210.1ZM484.0 210.1L481.6 210.1L481.6 194.9L483.9 194.9L483.9 197.2L484.1 197.2Q484.5 196.0 485.6 195.3Q486.7 194.6 488.1 194.6L488.1 194.6Q488.3 194.6 488.7 194.6Q489.1 194.6 489.3 194.7L489.3 194.7L489.3 197.0Q489.2 197.0 488.7 196.9Q488.3 196.9 487.9 196.9L487.9 196.9Q486.7 196.9 485.9 197.3Q485.0 197.8 484.5 198.6Q484.0 199.4 484.0 200.5L484.0 200.5L484.0 210.1ZM496.6 210.5L496.6 210.5Q495.1 210.5 493.9 209.9Q492.7 209.4 492.0 208.3Q491.4 207.3 491.4 205.8L491.4 205.8Q491.4 204.5 491.9 203.7Q492.4 202.8 493.3 202.4Q494.1 201.9 495.2 201.7Q496.2 201.4 497.3 201.3L497.3 201.3Q498.7 201.1 499.5 201.0Q500.4 200.9 500.8 200.7Q501.2 200.5 501.2 199.9L501.2 199.9L501.2 199.8Q501.2 198.4 500.4 197.5Q499.6 196.7 498.0 196.7L498.0 196.7Q496.3 196.7 495.4 197.5Q494.4 198.2 494.0 199.0L494.0 199.0L491.8 198.2Q492.4 196.8 493.4 196.1Q494.4 195.3 495.6 195.0Q496.8 194.7 497.9 194.7L497.9 194.7Q498.7 194.7 499.6 194.8Q500.6 195.0 501.5 195.5Q502.4 196.1 503.0 197.2Q503.6 198.2 503.6 200.1L503.6 200.1L503.6 210.1L501.2 210.1L501.2 208.1L501.1 208.1Q500.9 208.6 500.3 209.1Q499.7 209.7 498.8 210.1Q497.9 210.5 496.6 210.5ZM496.9 208.4L496.9 208.4Q498.3 208.4 499.3 207.8Q500.2 207.3 500.7 206.4Q501.2 205.6 501.2 204.6L501.2 204.6L501.2 202.4Q501.1 202.6 500.6 202.8Q500.1 202.9 499.4 203.0Q498.8 203.1 498.1 203.2Q497.5 203.3 497.2 203.3L497.2 203.3Q496.2 203.4 495.5 203.7Q494.7 204.0 494.2 204.5Q493.7 205.0 493.7 205.9L493.7 205.9Q493.7 207.1 494.6 207.8Q495.5 208.4 496.9 208.4ZM510.2 200.9L510.2 200.9L510.2 210.1L507.9 210.1L507.9 194.9L510.1 194.9L510.1 197.2L510.3 197.2Q510.9 196.1 512.0 195.4Q513.0 194.7 514.8 194.7L514.8 194.7Q516.3 194.7 517.5 195.3Q518.7 195.9 519.3 197.2Q519.9 198.5 519.9 200.4L519.9 200.4L519.9 210.1L517.6 210.1L517.6 200.6Q517.6 198.8 516.7 197.8Q515.7 196.8 514.1 196.8L514.1 196.8Q513.0 196.8 512.1 197.2Q511.2 197.7 510.7 198.7Q510.2 199.6 510.2 200.9ZM530.4 216.2L530.4 216.2Q528.7 216.2 527.5 215.7Q526.3 215.3 525.5 214.6Q524.6 213.9 524.2 213.1L524.2 213.1L526.0 211.8Q526.4 212.2 526.8 212.8Q527.3 213.3 528.2 213.7Q529.0 214.1 530.4 214.1L530.4 214.1Q532.3 214.1 533.5 213.2Q534.7 212.3 534.7 210.4L534.7 210.4L534.7 207.3L534.5 207.3Q534.2 207.7 533.7 208.3Q533.3 208.9 532.4 209.4Q531.5 209.9 530.0 209.9L530.0 209.9Q528.2 209.9 526.7 209.0Q525.2 208.1 524.4 206.5Q523.5 204.8 523.5 202.4L523.5 202.4Q523.5 200.1 524.4 198.3Q525.2 196.6 526.7 195.6Q528.1 194.7 530.1 194.7L530.1 194.7Q531.5 194.7 532.4 195.1Q533.3 195.6 533.8 196.3Q534.2 196.9 534.5 197.3L534.5 197.3L534.7 197.3L534.7 194.9L537.0 194.9L537.0 210.6Q537.0 212.5 536.1 213.8Q535.2 215.0 533.7 215.6Q532.2 216.2 530.4 216.2ZM530.3 207.8L530.3 207.8Q531.7 207.8 532.7 207.1Q533.7 206.5 534.2 205.3Q534.7 204.1 534.7 202.4L534.7 202.4Q534.7 200.7 534.2 199.5Q533.7 198.2 532.7 197.5Q531.8 196.8 530.3 196.8L530.3 196.8Q528.8 196.8 527.8 197.5Q526.9 198.3 526.4 199.5Q525.9 200.8 525.9 202.4L525.9 202.4Q525.9 204.0 526.4 205.2Q526.9 206.4 527.9 207.1Q528.9 207.8 530.3 207.8ZM547.7 210.4L547.7 210.4Q545.5 210.4 543.9 209.5Q542.3 208.5 541.5 206.7Q540.6 205.0 540.6 202.6L540.6 202.6Q540.6 200.3 541.5 198.5Q542.3 196.7 543.9 195.7Q545.4 194.7 547.5 194.7L547.5 194.7Q548.7 194.7 549.8 195.1Q551.0 195.4 551.9 196.3Q552.9 197.2 553.5 198.7Q554.0 200.2 554.0 202.3L554.0 202.3L554.0 203.3L542.3 203.3L542.3 201.3L551.6 201.3Q551.6 200.0 551.1 198.9Q550.6 197.9 549.7 197.3Q548.7 196.8 547.5 196.8L547.5 196.8Q546.1 196.8 545.1 197.5Q544.0 198.1 543.5 199.2Q542.9 200.4 542.9 201.6L542.9 201.6L542.9 203.0Q542.9 204.7 543.5 205.9Q544.1 207.1 545.2 207.7Q546.3 208.3 547.7 208.3L547.7 208.3Q548.6 208.3 549.4 208.1Q550.1 207.8 550.7 207.3Q551.2 206.7 551.5 205.9L551.5 205.9L553.8 206.6Q553.4 207.7 552.6 208.6Q551.7 209.5 550.5 210.0Q549.3 210.4 547.7 210.4Z "/></svg>